<?xml version="1.0" encoding="UTF-8"?>
<svg version="1.1" viewBox="0 0 1610 2048" width="199" height="253" xmlns="http://www.w3.org/2000/svg">
<path transform="translate(0)" d="m0 0h1610v2048h-1610z" fill="#FDFCFC"/>
<path transform="translate(235,477)" d="m0 0h1189l-2 27-11 121-8 93-9 105-20 230-14 169-9 97-7 83-9 106-15 177-3 42-1 10-10 5-28 10-56 16-105 29-64 18-72 20-37 11-53 14-46 14-37 10-8-1-32-9-74-21-133-37-56-16-130-36-42-12-33-11-4-3-2-16-12-134-9-105-7-79-9-109-12-133-12-143-7-81-22-253-10-118-7-83v-5l1-1z" fill="#026FB7"/>
<path transform="translate(1021,737)" d="m0 0h120l43 1 7 1 2 3-2 32-5 62-4 48-1 8-5 4-23 12-17 9-52 25-15 8-176 88-19 10-5 3 10 1h276l9 1 1 1v17l-6 77-5 55-4 46-9 99-4 42-9 108-3 21-3 5-24 7-51 14-64 18-72 20-65 18-34 10-11 1-26-8-84-24-59-16-32-9-87-24-23-7-5-3-7-77-10-118-2-27v-15h157l3 3 4 49 3 48 1 18 1 3 21 7 59 16 89 26 8-1 47-14 48-14 40-11 26-8 5-1v-29l3-48 8-107 2-13-485 1h-47l-2-10-7-72-5-66v-15l5-4 27-14 39-20 27-14 33-16 64-32 19-10 74-37 5-3h2v-2l-7 1h-300l-2-2-3-24-9-108-1-21 2-2z" fill="#FDFCFC"/>
<path transform="translate(938,585)" d="m0 0h247l87 1 28 1v20l-4 53-7 79-7 81-7 75-9 103-7 78-9 107-7 77-14 157-6 67-8 95-7 82-2 5-34 11-62 17-56 14-47 13-34 9-50 14-82 22-30 7h-5v-159l1-3 19-5 30-9 59-16 50-14 111-31 40-11 7-3 3-15 6-68 6-71 6-64 8-88 5-58 6-72 1-15v-17l-9-1h-276l-11-1 4-4 20-10 19-10 154-77 19-10 22-11 46-22 19-10 9-6 3-30 6-77 3-38-1-7-7-1-43-1h-225l-84-1h-20l-7-1v-31l1-118 9-1z" fill="#0DA0E0"/>
<path transform="translate(691,136)" d="m0 0h216v61l-157 1v26l157 1v143h-216v-61l155-1v-27h-156v-51z"/>
<path transform="translate(942,136)" d="m0 0h215l1 1v41l-1 19-153 1-2 1v26h155l1 1v141l-1 1h-215v-62h156l-1-26-155-1z"/>
<path transform="translate(696,1208)" d="m0 0h295l-6 82-5 66-2 49-24 8-43 12-49 14-33 10-20 6h-2v-245l-111-1z" fill="#0DA0E0"/>
<path transform="translate(439,136)" d="m0 0h217v43l-1 19h-155l-1 2v106l157 1v61h-217l-1-231z"/>
<path transform="translate(1165,1069)" d="m0 0h1v26l-1 3-2 22v17l-1 8-1 5-2 14h-1v-16l6-77z" fill="#057DC3"/>
<path transform="translate(1148,1269)" d="m0 0h1l1 8-1 3-1 18-2 23-2 10h-1v-14l4-46z" fill="#0680C5"/>
<path transform="translate(1156,1168)" d="m0 0h2v20l-1 3-2 22h-1v-23z" fill="#0477BE"/>
<path transform="translate(1153,1215)" d="m0 0h1v23l-2 10-1 7h-1v-16l2-23z" fill="#0376BD"/>
<path transform="translate(1156,1168)" d="m0 0h2v17l-3 2z" fill="#057FC4"/>
<path transform="translate(1159,1136)" d="m0 0h1l1 16-2 12h-1v-16z" fill="#0785C9"/>
<path transform="translate(1148,1269)" d="m0 0h1l1 8-2 12-2 1 1-19z" fill="#0682C7"/>
<path transform="translate(1153,1215)" d="m0 0h1v15l-2 6h-1l1-20z" fill="#0785C9"/>
<path transform="translate(835,1443)" d="m0 0h8v2l-7 2h-7l3-3z" fill="#057DC3"/>
<path transform="translate(1145,1314)" d="m0 0h1v10l-2 7h-1v-14z" fill="#057CC2"/>
<path transform="translate(1147,1289)" d="m0 0h1v9l-3 3v-8z" fill="#057CC2"/>
</svg>
