<?xml version="1.0" encoding="UTF-8"?>
<svg version="1.1" viewBox="0 0 1440 1440" width="360" height="360" xmlns="http://www.w3.org/2000/svg">
<path transform="translate(0)" d="m0 0h1440v1440h-1440z" fill="#FCFCFC"/>
<path transform="translate(690,277)" d="m0 0h53l32 3 32 5 30 7 36 12 26 11 25 12 24 14 17 11 17 12 14 11 15 13 13 12 22 22 9 11 11 13 8 11 12 17 15 24 14 26 13 28 12 32 8 27 8 36 4 28 2 20 1 18v36l-2 31-3 23-4 22-7 29-8 26-9 25-13 29-11 22-8 13-10 16-12 17-9 12-8 10-12 14-11 12-19 19-11 9-12 11-19 14-27 18-24 14-22 11-31 13-13 4h-13l-8-4-5-6-3-11v-133l-2-22-4-17-6-15-6-11-9-10v-3l28-5 30-7 20-6 21-9 18-10 14-10 14-12 9-10 10-13 10-17 9-20 7-23 5-21 4-36v-40l-3-22-5-21-8-20-10-19-11-15-6-8 1-10 5-25 1-11v-17l-4-28-6-23-4-8h-12l-19 3-15 4-28 12-24 14-14 9-7 5-9-2-29-6-27-4-21-2h-53l-36 4-32 6-13 4-5-1-17-11-15-9-23-12-25-9-17-4-9-1h-11l-3 3-6 17-5 29-1 10v23l4 24 4 15-12 15-10 16-10 21-8 24-3 16-2 19v21l2 29 4 27 6 24 8 22 12 23 10 14 12 14 7 7 14 11 14 9 19 10 24 9 26 7 33 6 9 2-6 8-6 9-8 17-5 17-2 8-3 4-22 7-10 2-11 1h-9l-16-2-12-4-15-8-10-8-9-9-12-18-11-16-13-13-15-10-11-5-13-3h-10l-10 2-5 5 5 9 11 9 14 10 8 8 10 13 11 19 10 23 7 14 11 14 10 9 10 7 16 8 20 6 21 2 27-1 24-3 1 1v83l-3 7-7 6-8 3h-11l-20-7-33-15-23-12-23-14-19-13-17-13-14-12-17-16-22-22-7-8-11-14-10-13-12-17-12-19-10-18-8-15-12-27-11-29-9-30-8-37-4-29-2-25-1-28 2-40 3-26 5-28 7-30 8-25 8-22 11-25 15-30 14-23 13-19 12-16 11-13 12-14 31-31 11-9 13-11 19-14 23-15 23-13 27-13 33-13 26-8 24-6 27-5 23-3z"/>
</svg>
