<?xml version="1.0" encoding="UTF-8"?>
<svg version="1.1" viewBox="0 0 1392 1392" width="348" height="348" xmlns="http://www.w3.org/2000/svg">
<path transform="translate(0)" d="m0 0h1392v1392h-1392z" fill="#D7BB39"/>
<path transform="translate(0)" d="m0 0h1392v1392h-1392zm115 50-1 4 5 38 5 50 10 116 17 187 8 90 3 36 7 75 9 104 6 62 6 76 7 74 8 90 9 101 7 73 1 5 21 7 107 30 120 34 48 14 51 14 74 21 33 10 15 4h7l24-7 57-16 51-14 109-31 51-14 38-11 78-22 51-14 13-4 1-1 6-73 5-53 4-46 6-64 6-70 11-122 7-81 4-43 5-58 6-64 5-61 6-63 10-113 5-58 7-79 6-64 5-65v-3l-571-1z" fill="#F9F9F8"/>
<path transform="translate(705,154)" d="m0 0h464l1 2-1 6-3 45-3 39-6 63-6 68-4 43-9 102-4 46-8 89-4 45-2 21-10 112-12 136-5 57-3 36-7 74-2 22-1 6-29 9-39 11-105 29-109 30-55 15-43 11h-4l-1-295v-795l1-26z" fill="#FED944"/>
<path transform="translate(1090,305)" d="m0 0h20v16l-5 60-4 43-1 15-2 2h-243v207l73-9 70-9 63-8 16-2h7v10l-5 68-10 128-8 101-5 66-3 3-27 8-63 16-33 9-39 10-37 10-43 11-49 13-16 4h-3l-1-3v-130l5-3 38-10 42-11 55-15 39-10 36-10 10-2 1-31 4-86-13 3-208 37-8 1-1-2v-498l1-1z" fill="#F9F9F8"/>
<path transform="translate(538,305)" d="m0 0h108l3 1 1 771-3 1-56-16-144-40-39-11-47-13-45-13-3-2v-134l7 1 35 10 58 16 100 28 19 6 5 1v-605z" fill="#F9F9F8"/>
</svg>
