<?xml version="1.0" encoding="UTF-8"?>
<svg version="1.1" viewBox="0 0 2048 1286" width="920" height="578" xmlns="http://www.w3.org/2000/svg">
<path transform="translate(0)" d="m0 0h2048v1286h-2048z" fill="#F9F9F9"/>
<path transform="translate(1299,660)" d="m0 0h132l20 4 15 5 11 6 9 7 7 8 6 13 2 7v149l-3 14-7 12-8 7-12 7 2 4 8 7 12 11 8 7 12 11 8 7v2h-60l-9-6-8-8-8-7-20-18-34 2h-77l-19-3-14-4-11-5-11-7-10-10-7-14-2-10v-146l3-13 5-10 6-7 13-9 15-7 20-5z" fill="#EA7C04"/>
<path transform="translate(286,654)" d="m0 0h9l16 3 12 6 8 7 7 10 12 27 26 60 9 21 16 37 18 41 1 3 7-15 15-33 13-29 14-31 15-34 15-33 8-17 11-12 10-6 13-4h26l17 4 14 7 8 9 3 10 1 7v218h-54l-1-1v-209l1-2h-2l-2 6-11 25-17 37-12 28-7 15-19 42-16 35-7 12-9 8-10 5-10 2h-25l-12-3-9-5-7-6-8-13-17-37-12-27-9-21-7-14-16-36-17-37-6-14v-2h-2l1 2v51l-1 159h-53v-224l2-9 6-8 7-6 13-5 14-3z" fill="#024E60"/>
<path transform="translate(1290,135)" d="m0 0h13l14 3 17 6 17 8 16 10 15 12 3 1 22 1 14 2 24 6 16 6 17 9 20 13 12 8 16 12 14 11 14 12 26 26 7 8 13 16 13 18 15 23 10 19 16 38 9 20 29 60 6 12 6 8 25 11 24 11 14 8 23 16 17 13 10 8 14 12 11 12 10 14-4 3-17 5-17 3-20 3-30 7h-3l8 11 10 8 27 16 12 9 14 12 12 12 9 11 13 14 5 10v2l-5-2-10-9-14-10-15-10-40-20-12-7-19-14-12-11-8-10-6-10-4-10 2-5 12-5 19-6 12-3 15-2 37-1-3-5-11-9-16-10-18-13-20-13-15-7-28-10-21-7-6-4-7-8-9-15-14-29-13-29-13-27-17-41-10-18-14-22-16-21-9-11-11-12-22-22-11-9-18-14-21-14-26-14-23-10-13-4-46-4-7-4-12-10-15-9-20-9-16-6-4-1h-9l-7 4-2 4 1 9 5 12 8 11 14 18 12 18 9 17 9 25 12 36 10 21 8 12 10 10 5 8 1 6-4 17-9 27-4 19-1 15v25l3 22 5 19 8 19 7 10 7 4 4 1 1-13 4-29 4-15 8-16 10-13 5-6 2 1 7 19 12 28 11 21 14 24 10 16 14 20 7 9 9 10 16 16-2 1-9-7-10-9-7-7-10-8-13-11-9-8-7-8-10-12-7-11-16-32-2-1-1 9-6 36-6 12-9 6-3 1h-11l-12-6-8-7-8-11-7-12-7-18-5-21-2-14-1-14v-11l2-24 4-20 9-34 2-4v-5l-9-10-7-10-11-20-13-33-8-24-5-16-7-13-14-19-11-14-9-13-6-12-2-7v-16l4-11 6-8 8-5z" fill="#024E60"/>
<path transform="translate(859,735)" d="m0 0h54v202l-3 10-6 10-9 9-11 7-14 6-15 4-12 2h-187v-35l1-1h165l16-2 11-4 6-5 2-4 2-25h-121l-18-2-21-5-15-6-11-7-9-8-6-9-3-8v-128h55v122l3 7 6 5 11 4 6 1h123z" fill="#024E60"/>
<path transform="translate(1037,659)" d="m0 0h152l9 1v37h-165l-12 3-6 4-4 8v34l4 10 7 6 12 4 34 1h50l24 3 18 6 16 8 10 8 7 9 3 9v53l-3 11-8 11-10 8-23 11-14 4-13 2h-170v-36l153-1 14-2 9-4 7-6 2-4v-40l-3-5v-2l-4-2-10-4-20-3h-63l-20-2-17-4-16-6-11-6-10-8-6-8-4-13v-46l4-14 7-11 8-7 12-7 21-7 11-2z" fill="#EA7C04"/>
<path transform="translate(1408,696)" d="m0 0 16 1 12 4 8 6 5 8 1 5v132l-4 9-5 6-6 2-13-12-8-7-10-9-7-6h-62l10 9 8 7 9 9 8 7 7 6v1h-61l-13-5-7-6-4-7-2-7-1-15v-102l1-15 4-8 8-7 11-4 6-1z" fill="#F9F9F9"/>
<path transform="translate(1535,660)" d="m0 0h54l1 151 1 43 3 8 5 5 10 4 17 2 150 1v25l-1 11h-155l-24-3-19-5-12-5-12-8-8-8-6-10-3-10-1-8-1-33v-153z" fill="#EA7C04"/>
<path transform="translate(1827,874)" d="m0 0h11l5 10 5 13 4-10 5-13h11v37h-7l-1-23-4 10-5 12-5 1-6-12-4-11v-3h-2l1 5v20l-2 1-6-1z" fill="#EA7C04"/>
<path transform="translate(1392,238)" d="m0 0h8l10 8 5 8 1 6-2 8-4 7-5 2-8-17-6-8-8-10v-2z" fill="#034E60"/>
<path transform="translate(1790,873)" d="m0 0 29 1v6l-10 1-1 29h-7l-1-8v-22h-10z" fill="#EA7C04"/>
</svg>
