<?xml version="1.0" encoding="UTF-8"?>
<svg version="1.1" viewBox="0 0 2048 1110" width="920" height="499" xmlns="http://www.w3.org/2000/svg">
<path transform="translate(0)" d="m0 0h2048v1110h-2048z" fill="#F9F9F9"/>
<path transform="translate(1017,179)" d="m0 0h22l40 1 35 2 53 4 23 3 49 7 39 7 36 8 21 5 20 5 53 16 22 8 16 6 32 13 9 4 12 5 16 8 17 9 14 7 27 16 21 14 14 10 17 13 13 11 10 9 28 28 11 14 10 13 12 19 6 11 8 16 6 15 7 25 3 15 1 8v43l-4 22-5 19-4 12-7 15-8 16-9 15-11 16-11 14-22 24-10 10-8 7-14 12-13 10-18 13-15 10-21 13-21 12-15 8-23 11-29 13-27 11-55 19-17 5-26 7-34 9-51 10-34 6-36 5-46 5-59 4-21 1h-77l-58-3-48-4-41-5-25-4-24-4-35-7-43-10-23-6-27-8-22-7-21-7-21-8-22-9-15-6-16-8-23-11-23-12-28-17-21-14-15-11-14-11-14-12-10-9-22-22-9-11-12-15-12-18-8-13-10-21-8-22-5-19-4-26v-33l4-25 4-14 3-12 4-9 3-8 12-24 14-21 16-21 24-26 9-8 5-5 11-9 3-3h2v-2l9-7 16-12 12-8 10-7 11-7h3v2h-2l-1 4-3 4-1 9 1 1 1 9 2 2 19-12 25-14 30-15 42-18 29-11 38-13 22-6 24-7 35-8 16-4 32-6 43-7 56-7 32-3 52-3v-2l-3-5-1-4v-6l-9-6-15-1 4-2z" fill="#6881BB"/>
<path transform="translate(1241,389)" d="m0 0h180l24 4 21 6 17 9 11 8 9 8 11 15 7 14 4 15 2 12v34l-3 17-6 24-5 12-11 21-10 14-13 15-14 13-17 12-17 9-15 6-16 4-18 3-26 2h-86l-1 9-2 12-2 9-7 37-2 8-5 25h-82l2-16 3-15 3-16 6-29 4-23 5-25 7-36 5-26 14-70 7-37 11-56z" fill="#040312"/>
<path transform="translate(601,389)" d="m0 0h177l23 3 15 4 13 5 15 8 14 11 10 11 9 15 6 17 3 16v36l-2 13-3 13-5 16-8 19-10 17-10 13-12 13-13 12-16 11-19 10-13 5-12 3-22 4-26 2h-85l-3 15-4 21-3 17-3 14-5 26-2 6h-82l1-7 7-38 5-25 14-73 5-25 5-26 5-25 9-47 5-25 11-56 5-27z" fill="#030312"/>
<path transform="translate(1205,192)" d="m0 0 12 1 34 5 27 5 36 8 21 5 20 5 53 16 22 8 16 6 32 13 9 4 12 5 16 8 17 9 14 7 27 16 21 14 14 10 17 13 13 11 10 9 28 28 11 14 10 13 12 19 6 11 8 16 6 15 7 25 3 15 1 8v43l-4 22-5 19-4 12-7 15-8 16-9 15-11 16-11 14-22 24-10 10-8 7-14 12-13 10-18 13-15 10-21 13-21 12-15 8-23 11-29 13-27 11-55 19-17 5-26 7-34 9-51 10-34 6-36 5-46 5-59 4-21 1h-77l-58-3-48-4-41-5-25-4-24-4-35-7-43-10-23-6-27-8-22-7-21-7-21-8-22-9-15-6-16-8-23-11-23-12-28-17-21-14-15-11-14-11-14-12-10-9-22-22-9-11-12-15-12-18-8-13-10-21-8-22-5-19-3-19v-37h2l2 15v7l2 13 7 18h5l2 4 1 1 1 3 3 1-2-7 4-11 2 1 6 24 6 16 12 25 11 18 12 16 9 11 12 13 13 13 8 7 14 12 12 9 20 14 17 11 19 11 18 10 19 10 31 14 46 18 36 12 30 9 30 8 40 9 47 9 48 7 48 5 51 4 20 1h100l33-2 39-3 23-2 33-4 45-7 32-6 43-10 42-11 35-11 32-11 20-8 13-5 12-5 13-6 27-13 23-13 19-11 27-18 16-12 11-9 13-11 16-15 7-8 9-10 13-17 10-15 11-19 7-16 4-11 2-7 5-21 2-17v-24l-3-24-5-19-8-22-10-20-12-19-6-8v-2h-2l-6-8v-2h-2l-3-4v-2l-4-2-7-8-15-15-11-10-10-8-12-9-2-1v-2l-4-2-9-6-16-11-7-4-9-6-11-6-10-6-16-8-36-17-37-15-16-6-14-5-23-8-21-6-37-10-52-12-49-9-4-2 13-3v-4l5-3-2-5-9-5-11-2-14-4z" fill="#1F2129"/>
<path transform="translate(942,289)" d="m0 0h82l-2 17-3 12-6 34-2 9-2 12-4 16h94l25 3 18 4 13 5 15 9 7 7 8 12 4 13 2 11v22l-3 17-3 16-3 12-4 24-8 41-3 12-6 34-2 9-5 25h-83l1-10 20-102 7-35 5-28v-19l-5-10-5-4-10-4-10-2-81-1-2 13-4 21-3 17-2 7-5 29-3 12-5 29-2 7-3 19-3 12-8 45-1 4h-82l1-8 5-28 9-46 12-60 6-32 6-31 7-36 7-35 7-38 5-25 5-26z" fill="#030312"/>
<path transform="translate(939,278)" d="m0 0h90l5 4 2 4-1 10-6 32-10 50h80l21 2 16 3 17 5 14 7 9 6 10 9 7 11 5 11 3 12 1 8v21l-3 22-5 23-5 28-4 19-5 28-6 28-4 23-5 23-3 7-2 2h-95l-4-4-2-3 1-12 14-71 17-88 2-9v-19h-2l-4-4-8-3-6-1-18-1h-52l-5 27-5 23-12 64-5 24-7 38-6 29-4 8-3 2h-92l-4-4-2-4 1-11 12-62v-2l-7 11-9 11-9 10-10 10-4 3h-2v2l-10 7-7 5-16 8-15 6-16 5-25 4-10 1h-92l-1 6-4 21-9 49-4 16-3 6-2 2-9 1h-80l-6-2-3-3-2-4 1-9 18-93 11-56 23-118 16-82 5-24 3-5 4-3h180l19 2 22 5 13 5 16 8 8 5v2l5 2 11 10 9 12 7 12 6 16 3 10 17-87 17-88 4-11zm3 11-5 27-6 31-5 27-5 24-28 144-6 31-11 56-5 28-1 8h82l8-42 3-17 2-9 3-17 3-12 3-19 5-22 4-24 3-12 4-24 3-14v-3l81 1 13 3 10 5 4 5 3 7v19l-7 37-7 36-19 97v5h83l5-25 3-14 5-29 6-27 7-38 2-12 3-12 4-21 2-12v-22l-4-19-5-10-8-10-7-6-16-9-12-4-20-4-20-2h-94l5-21 2-14 3-12 6-34 2-7 1-12zm-341 100-2 7-7 37-6 31-6 32-5 24-8 41-6 31-5 27-5 24-8 41-6 33-5 24-4 20v4h82l3-10 5-29 3-12 3-19 3-14 2-12 1-3h85l26-2 13-2 11-3 16-4 23-11 16-11 14-12 10-10 11-14 9-14 8-16 7-18 3-11 4-23v-36l-3-16-6-17-9-15-12-13-14-10-16-8-10-4-15-4-23-3z" fill="#F3F4F5"/>
<path transform="translate(671,449)" d="m0 0h78l16 3 11 4 8 4 7 6 6 10 3 9v27l-4 22-7 21-7 14-8 10-8 8-9 6-17 7-11 3-21 3h-67l1-7 4-22 3-12 4-21 5-29 3-12 2-10 4-24 3-12z" fill="#6881BC"/>
<path transform="translate(1312,449)" d="m0 0h73l15 2 12 3 14 7 8 8 4 9 3 8v24l-4 23-6 20-9 17-8 10-10 9-16 8-18 6-24 3h-64v-5l2-7 7-37 3-17 3-12 4-24 3-12 4-24 2-7z" fill="#6881BC"/>
<path transform="translate(311,541)" d="m0 0h2l2 15v7l2 13 7 18h5l2 4 1 1 1 3 3 1-2-7 4-11 2 1 6 24 6 16 12 25 11 18 12 16 9 11 12 13 13 13 8 7 14 12 12 9 20 14 17 11 19 11 18 10 19 10 31 14 46 18 36 12 30 9 30 8 40 9 47 9 48 7 48 5 11 1v1l9 2v2h7l25 5 7 1 7 2 1 5h2l1 5-14 2-4 1h-29l-31-2-46-5h-6l4 2-10-1-35-5-45-9-43-10-23-6-27-8-22-7-21-7-21-8-22-9-15-6-16-8-23-11-23-12-28-17-21-14-15-11-14-11-14-12-10-9-22-22-9-11-12-15-12-18-8-13-10-21-8-22-5-19-3-19z" fill="#475A7F"/>
<path transform="translate(1239,378)" d="m0 0h181l28 4 23 7 16 8 12 8 12 11 8 9 9 16 6 15 4 17 1 9v29l-4 26-8 26-5 13-7 13-10 16-12 14-18 18-5 2-1 3-13 9-11 6-16 7-10 4-28 6-18 2-92 1-6 28-5 28-3 13-3 18-4 10-4 2-8 1h-53l-31-1-5-4-1-2v-9l13-67 13-68 19-97 4-21 20-102 4-20 4-6zm2 11-5 28-8 40-6 31-8 41-7 38-5 24-9 46-5 27-4 19-6 31-3 13-3 20-3 15v4h82l6-31 3-12 6-34 2-7 2-11v-5h86l26-2 22-4 18-5 21-10 11-7 13-10 15-14 12-14 12-19 10-21 5-16 4-17 2-13v-34l-4-20-5-14-9-14-9-11-12-10-16-9-12-5-15-4-24-4z" fill="#F4F5F6"/>
<path transform="translate(935,182)" d="m0 0h14l15 1 9 6 1 1v8l3 6 2 3-2 1-52 3-49 5-46 6-48 8-25 5-11 3-43 10-23 7-17 5-36 12-34 13-32 14-25 12-23 12-17 10-14 9-2-1-1-4-1-7-1-1 1-9 4-5 1-3h2l-1-3 17-10 36-19 27-12 23-10 24-9 12-4 7-3 33-11 24-7 16-4 19-4 15-5 41-9 24-4 35-5 36-5 49-5z" fill="#E4E4E7"/>
<path transform="translate(1273,882)" d="m0 0 16 1h17l6 3 2 3-7 4h-2v2l-4 1-13 4-22 5-25 5-28 5-9 1-7 2-6 1 1 2-46 5-59 4-21 1h-77l-58-3-48-4-33-4-7-2 2-2 15 1 37 4 35 2h24l13-2h5l-1-5h-2l-1-5-22-4-24-4v-2l-15-1v-1h19l47 3h100l33-2 39-3 23-2 33-4 45-7 8-1 1 1z" fill="#354057"/>
<path transform="translate(1205,192)" d="m0 0 12 1 34 5 27 5 36 8 21 5 20 5 53 16 22 8 16 6 32 13 9 4 12 5 12 6-1 2 9 6 1 2 6 2 14 8 11 8 5 5 3 5v6l-2 3h-7l-5-3-8-3-17-9-7-3-7-1-37-17-30-12-16-6-14-5-23-8-21-6-37-10-52-12-49-9-4-2 13-3v-4l5-3-2-5-9-5-11-2-14-4z" fill="#354057"/>
<path transform="translate(1312,449)" d="m0 0h73l15 2 12 3 14 7 8 8 4 9 3 8v24l-4 23-6 20-9 17-8 10-10 9-16 8-18 6-24 3h-64v-5l2-7 7-37 3-17 3-12 4-24 3-12 4-24 2-7zm10 11-3 12-5 27-5 24-4 23-5 23-3 17-1 2v7h41l23-2 18-4 12-5 11-7 7-7 7-11 7-15 4-13 4-19v-24l-4-11-8-8-10-5-15-3-9-1z" fill="#F3F4F5"/>
<path transform="translate(671,449)" d="m0 0h78l16 3 11 4 8 4 7 6 6 10 3 9v27l-4 22-7 21-7 14-8 10-8 8-9 6-17 7-11 3-21 3h-67l1-7 4-22 3-12 4-21 5-29 3-12 2-10 4-24 3-12zm10 11-6 28-7 35-3 16-4 21-6 32v3h41l19-1 15-3 15-5 11-6 10-9 8-11 6-13 5-15 4-18v-27l-4-10-1-2h-2l-2-4-6-4-12-4-15-3z" fill="#F3F3F5"/>
<path transform="translate(1205,192)" d="m0 0 12 1 34 5 27 5 36 8 21 5 20 5v3l20 8 8 4 3 2 1 9-5 5-12 1-3 1-16-5-48-12-37-8-39-7-4-2 13-3v-4l5-3-2-5-9-5-11-2-14-4z" fill="#475A7F"/>
<path transform="translate(935,182)" d="m0 0h14l15 1 9 6 1 1v8l3 6 2 3-2 1-52 3-49 5-17 2-15-1-10-3-3-3-3-6v-2l-12-2-8-1-15 2h-7v-1l16-3 35-5 36-5 49-5z" fill="#BEC5D5"/>
<path transform="translate(617,247)" d="m0 0 3 1h-2l-2 5-5 7-1 4 3 1-2 5-4 2-1 3-13 8-5 3-4 3-30 13-34 17-24 14-14 9-2-1-1-4-1-7-1-1 1-9 4-5 1-3h2l-1-3 17-10 36-19 27-12 23-10 24-9z" fill="#BDC4D4"/>
<path transform="translate(363,413)" d="m0 0 3 1-5 7h-2l-1 4-3 4-2 6-1 2h-2v3l-2 1v3h-2v14h3v2l4 2v2h6l1-6 3-8 2 2-15 39-7 24-4 22-1 9v13l2 18v9l-3 4-2 8 1 5-7-1 3-1-4-2 2-2-1-3-5 1-4-8-4-11-2-14-1-21h-2v30h-1v-33l4-25 4-14 3-12 4-9 3-8 12-24 14-21z" fill="#576FA0"/>
<path transform="translate(1017,179)" d="m0 0h22l40 1v1l-8 1 12 5v2l3 1-1 6-1 2v9l-76 1h-31v-3l-3-5-1-4v-6l-9-6-15-1 4-2z" fill="#8093BC"/>
<path transform="translate(482,310)" d="m0 0h3v2h-2l-1 4-3 4-1 9 1 1 1 9 2 4-12 8-19 13-14 11-15 14-6 6h-2l-1 3-8 7-4 2-2 4-8 8-6 7-1-3 4-4 3-13 1-7-5 16-1 5-2-2 3-16 3-13 1-2h2l1-5h2l2-4 8-9 11-9 6-6 1-3 9-7 16-12 12-8 10-7z" fill="#7F92BC"/>
<path transform="translate(1601,334)" d="m0 0 4 1 19 14 14 12 10 9 28 28 11 14 10 13 12 19 6 11 8 16 6 15 7 25 3 15 1 8v43l-4 22-5 19-4 12-7 15-8 16-9 15-11 16-11 14-22 24-10 10-8 7-14 12-13 10-18 13-15 10-21 13-21 12-15 8-23 11-3-1 10-7 4-1v-2h4v-2l11-5 6-3 4-3h3v-2l10-5 8-5 15-9 10-7 10-6 6-4h2v-2l5-3 6-5 7-6h2v-2l6-4 5-5h2v-2l8-7 6-6h2v-2h2v-2l5-5 5-4 1-2h2v-2l6-5 1-2h2l3-6h2l2-4 10-13 9-13 9-16 8-15 4-12 4-11 3-10 3-14 3-19 1-21-1-21-5-26-6-20-10-24-6-12-7-11-5-10-2-2v-3l-3-1-7-9-11-14-9-10-28-28-7-6v-2l-4-1-8-8-6-3-3-4-6-3z" fill="#0A0B1B"/>
<path transform="translate(1092,182)" d="m0 0h22l53 4 23 3 15 2v3l6 1 8 2 11 2 10 6 2 5-4 3h-2v4l-11 3 2 2-11-1-73-9 2-9 1-9-9-3-4-2-10-2-4-2-27-2z" fill="#576FA0"/>
<path transform="translate(1652,410)" d="m0 0 5 3 12 12 2 4 4 4 16 24 6 10 6 16 9 28 3 16 2 14v18l-2 21-6 26-3 7-4 13-5 12-8 15-9 14-11 16-4 6h-2l-3 6h-2l-2 4-8 10-17 17-8 6h-2l-2 4-8 6-8 7-10 7-11 8-8 6-7 2v2l-11 6-3 1v2l-5 4h-3v2l-5 1-15 8-23 11-15 6-2-1 16-8 29-15 24-14 19-12 20-14 14-11 13-11 8-7 14-13 7-8 9-10 13-17 10-15 11-19 7-16 4-11 2-7 5-21 2-17v-24l-3-24-5-19-8-22-10-20-12-19-6-8v-2h-2l-6-8v-2h-2l-3-4v-2l-3-1z" fill="#050413"/>
<path transform="translate(1684,657)" d="m0 0 1 3-12 17-8 12h-2l-3 6h-2l-2 4-8 10-17 17-8 6h-2l-2 4-8 6-8 7-10 7-11 8-8 6-7 2v2l-11 6-3 1v2l-5 4h-3v2l-5 1-15 8-23 11-15 6-2-1 16-8 29-15 24-14 19-12 20-14 14-11 13-11 8-7 14-13 7-8 9-10 13-17 10-15z" fill="#080817"/>
<path transform="translate(780,227)" d="m0 0h10l-3 2-25 5-22 5-37 9-23 7-15 4-3-1 4-3 20-8 25-9 27-7z" fill="#F6F6F7"/>
<path transform="translate(1703,613)" d="m0 0h2l-1 7-6 16-9 17-5 5-2 1 2-5 8-14 7-16z" fill="#070715"/>
<path transform="translate(1065,960)" d="m0 0h2l1 6h-32v-2l7-2h17z" fill="#E5E5E8"/>
<path transform="translate(331,423)" d="m0 0h2v10h-30v-1l7-2 1-1h8l5 1 4-2z" fill="#E5E5E8"/>
<path transform="translate(378,758)" d="m0 0 12 6h7l3-1v4l-31-1 4-4 4-1z" fill="#E5E5E8"/>
<path transform="translate(997,960)" d="m0 0h4v6h-31v-2l8-2 13 1 6-1z" fill="#E5E5E8"/>
<path transform="translate(1522,795)" d="m0 0 2 1-5 5-26 12-8 2 1-2 23-11z" fill="#0A0A18"/>
<path transform="translate(345,728)" d="m0 0 8 1 3 1h5l5-2 1 5h-30v-2z" fill="#E5E5E8"/>
<path transform="translate(1281,676)" d="m0 0h83v1l-81 1-3 2z" fill="#7E91BB"/>
<path transform="translate(1111,961)" d="m0 0 2 2h16l5-2 1 5h-32v-2z" fill="#E5E5E8"/>
<path transform="translate(501,268)" d="m0 0h5v5l-1 1v8l-2 8-2-1z" fill="#E5E5E8"/>
<path transform="translate(410,795)" d="m0 0h7l5 3v2h-17l-2-2h3v-2z" fill="#E5E5E8"/>
<path transform="translate(422,353)" d="m0 0 2 1-8 8-11 9-4 2 3-5 9-7zm-22 20m-2 1 2 1-7 7-2-1z" fill="#6F86BC"/>
<path transform="translate(396,405)" d="m0 0h2l-1 8-12 13-1-3 4-4 2-5h2l1-7 4 1z" fill="#778CBC"/>
<path transform="translate(741,930)" d="m0 0 9 1h12l5-1 1 3-3 1-27-1z" fill="#E5E5E8"/>
<path transform="translate(821,913)" d="m0 0 7 1 15 1 1 2 4 2-10-1-15-2-2-1z" fill="#404E69"/>
<path transform="translate(432,325)" d="m0 0h1l1 8h-14l3-2h2v-2z" fill="#E5E5E8"/>
<path transform="translate(363,413)" d="m0 0 3 1-5 7h-2l-1 4-5 5-2 1 2-5z" fill="#5D74A5"/>
<path transform="translate(1684,657)" d="m0 0 1 3-8 11-4 2 2-5 6-9z" fill="#0B0B1A"/>
<path transform="translate(1601,334)" d="m0 0 4 1 12 9-3 1-5-3-2-3-6-3z" fill="#0F1222"/>
<path transform="translate(580,895)" d="m0 0 5 2 2 2-4 1-14-1 3-2z" fill="#E5E5E8"/>
<path transform="translate(1342,930)" d="m0 0 12 1 2 2h-19l3-2z" fill="#E5E5E8"/>
<path transform="translate(566,259)" d="m0 0h1l1 8-8-1h-7l4-2 5-1z" fill="#E5E5E8"/>
<path transform="translate(677,930)" d="m0 0h8l1 3h-12l-4-2z" fill="#E5E5E8"/>
<path transform="translate(931,961)" d="m0 0h3v5h-9v-2z" fill="#E5E5E8"/>
<path transform="translate(802,910)" d="m0 0h8v2h5v1h-12z" fill="#414E67"/>
<path transform="translate(1496,808)" d="m0 0 3 1-1 2-11 4-2-1z" fill="#0F101E"/>
<path transform="translate(786,908)" d="m0 0h13v3l-10-1z" fill="#3C4964"/>
<path transform="translate(1495,835)" d="m0 0h2v3l-9 4h-2v-2z" fill="#0E101F"/>
<path transform="translate(766,193)" d="m0 0h1v6h-7l4-5z" fill="#E5E5E8"/>
</svg>
