<?xml version="1.0" encoding="UTF-8"?>
<svg version="1.1" viewBox="0 0 1440 1440" width="360" height="360" xmlns="http://www.w3.org/2000/svg">
<path transform="translate(0)" d="m0 0h1440v1440h-1440z" fill="#F9F9F9"/>
<path transform="translate(934,23)" d="m0 0h24l21 4 19 7 14 8 11 8 10 9 12 18 11 21 9 25 4 16 3 19 1 19v36l-2 39-5 38-9 41-3 13 8 3 29 9 27 10 20 8 26 12 25 13 24 15 17 13 10 9 8 7 12 12 13 18 9 16 6 14 4 16 1 9v15l-2 14-7 21-8 16-8 13-12 14-9 9-8 7-12 11-12 9-15 10-25 14-30 15-19 8-36 13-34 11h-2l7 32 7 41 5 39 2 27-1 32-4 31-6 26-7 18-9 17-11 15-11 12-8 7-15 9-16 7-21 5-8 1h-14l-18-2-24-5-21-7-13-6-17-8-18-10-16-10-34-24-13-11-10-8-12-11-8-7-10-9-8-6v-2l-4 1-8 7-15 13-10 9-8 7-16 13-14 10-30 20-22 13-16 8-25 10-22 7-20 4h-37l-16-4-14-5-16-8-10-7-9-8-13-17-9-16-7-15-8-24-3-15-2-20-1-18v-27l2-37 3-24 6-35 6-30 1-7-7-3-36-12-25-9-25-10-32-16-21-12-14-9-16-13-11-9-19-19-10-14-8-13-8-18-4-13-2-11v-14l3-21 5-17 7-15 6-10 11-15 20-20 8-7 15-12 12-8 17-10 14-8 19-9 12-6 27-11 60-20 3-2-4-16-5-23-7-42-4-35v-44l3-31 4-22 6-21 7-17 7-12 11-15 5-6 8-7 7-6 13-8 17-7 18-4h36l26 5 24 8 23 10 19 10 15 9 18 12 19 14 14 11 11 9 9 8 8 7 15 14 9 7 4-1 8-8 8-7 13-12 8-7 14-12 11-8 18-13 16-10 17-11 23-12 16-7 21-8 22-6z" fill="#5CD5FE"/>
<path transform="translate(680,352)" d="m0 0h41l79 2 16 1 7 2 8 10 22 34 12 20 15 26 10 17 12 22 10 19 11 23 2 4-1 7-14 28-12 21-7 14-10 18-21 35-11 17-9 14-12 19-5 7-9 2-20 1-37 1h-97l-36-2-7-2-9-13-10-15-11-17-24-40-12-21-9-16-15-29-8-16-4-7 1-9 19-38 10-19 12-21 15-25 8-13 14-22 12-19 10-14 4-2 21-2z" fill="#F9F9F9"/>
<path transform="translate(998,739)" d="m0 0 5 1 3 11 8 44 5 35 2 23v46l-4 28-8 24-8 15-8 10-10 8-15 7-16 3h-12l-25-5-24-8-29-14-16-10-20-14-14-11-11-9-14-12-12-12-8-7-10-9 1-5 13-14 7-8 11-13 13-16 11-14 14-18 10-13 9-12 5-5 8-3 64-8 36-6z" fill="#F9F9F9"/>
<path transform="translate(477,76)" d="m0 0h25l22 4 20 6 18 8 19 10 18 12 19 13 16 13 11 9 10 9 8 7 12 12 8 7-1 5-12 12-7 9-5 5-8 9-11 14-13 16-11 14-8 11-15 20-4 4-15 3-45 5-44 7-41 9h-6l-2-6-8-40-6-42-2-28v-35l3-26 5-23 5-14 6-11 9-12 14-10 12-5z" fill="#F9F9F9"/>
<path transform="translate(940,75)" d="m0 0h15l19 5 13 7 10 9 9 14 5 11 5 16 4 20 2 17v45l-3 32-6 36-7 33-2 9-10-1-37-7-41-7-38-5-21-2-6-3-7-9-11-16-11-14-9-12-11-13-12-14-11-13-7-8-9-10-5-5 1-5 26-24 8-7 12-10 14-11 19-14 17-11 17-10 22-11 14-5 13-4z" fill="#F9F9F9"/>
<path transform="translate(438,740)" d="m0 0 13 2 34 6 52 8 42 6 11 4 9 10 11 16 16 21 14 17 9 10 9 11 13 15 11 12 1 4-8 8-11 9-4 5-8 7-14 12-14 11-15 11-19 13-20 12-23 11-19 7-22 5-9 1h-10l-10-2-17-6-10-7-5-4-7-10-8-16-6-20-4-25-1-16v-28l2-31 5-36 7-36 4-16z" fill="#F9F9F9"/>
<path transform="translate(397,393)" d="m0 0h5l12 35 9 26 6 14 7 18 12 29 7 15v9l-20 45-10 24-15 43-6 19-1 6-8-1-36-12-34-13-20-9-20-10-14-8-18-12-12-9-16-15-9-10-8-13-6-14-2-7v-17l4-14 8-15 7-9 12-13 9-8 15-11 16-10 19-11 17-9 34-14 34-12z" fill="#F9F9F9"/>
<path transform="translate(1038,394)" d="m0 0 7 1 33 10 25 9 29 13 29 14 19 12 19 14 13 12 5 5 8 9 7 11 6 14 2 9v16l-5 14-5 10-9 13-11 12-7 7-14 11-15 10-16 9-19 10-21 10-28 11-35 12-13 4-4-1-3-7-15-45-11-28-12-29-11-24-2-3v-8l12-26 17-40 16-44 7-21z" fill="#F9F9F9"/>
<path transform="translate(208,1115)" d="m0 0h114l16 3 12 4 12 7 14 12 8 11 8 16 5 14 2 10v28l-4 14-5 12-10 15-9 11-11 8-17 8-19 5h-2l2 5 10 14 28 42 23 35 14 21v4h-43l-7-6-12-20-10-15-23-35-16-26-8-10-5-4-7-1-29-1h-25l-1 110h-25l-7-1-1-1 1-214 1-56v-12l1-6z" fill="#5CD5FE"/>
<path transform="translate(718,428)" d="m0 0h7l25 6 20 8 11 7 15 14 5 5v2h2l8 12 6 11 5 15 3 15v20l-2 13-5 16-8 16-11 16-10 10-8 6-18 10-16 6-14 4h-24l-17-4-19-7-10-6-13-11-13-13-9-14-8-17-5-19v-26l3-15 4-12 8-16 6-9 10-12 11-9 11-7 12-6 21-6z" fill="#5CD5FE"/>
<path transform="translate(768,1192)" d="m0 0h32l21 3 15 4 14 7 9 7 8 10 6 13 3 17v153l-3 2h-29l-1-1v-13l-6 2-11 8-16 9-12 5-7 2-10 1h-12l-21-3-16-6-9-5-12-11-8-11-6-12-3-11-1-9v-14l3-14 8-16 8-11 10-9 15-8 15-4 6-1 20-1 19 3 19 7 15 9 8 6 2 1-2-32-2-15-6-15-7-6-10-5-16-4-12-1h-13l-16 4-17 9-14 11-5 4-6-5-7-11-5-6 2-5 11-9 10-7 15-8 17-6z" fill="#5CD5FE"/>
<path transform="translate(532,1192)" d="m0 0h30l18 4 13 5 11 6 13 10 7 7 9 12 11 21 5 15 3 16v29l-1 1h-174l6 23 8 17 8 11 7 7 15 8 14 5 9 2h18l18-3 14-6 14-8 12-9 4 1 6 10 7 9-2 5-8 8-13 8-17 8-14 4-12 2h-38l-16-4-19-7-12-7-10-9-10-10-11-15-8-17-4-14-2-9-1-12v-15l2-18 4-17 4-12 8-15 11-14 8-8 15-10 14-7 21-7z" fill="#5CD5FE"/>
<path transform="translate(1021,1190)" d="m0 0h31l21 5 16 7 12 8 14 12 3 4-1 5-10 9-11 9-4-1-7-8-10-7-12-6-10-3-8-1h-14l-15 3-16 8-8 6-8 8-6 10-5 14-3 16-1 11v16l3 17 5 13 6 11 9 11 12 9 13 6 11 3 7 1h13l16-4 16-8 13-11 4-4 4 2 4 5 11 9 4 4-2 4-12 12-13 9-15 7-16 5-16 2h-19l-16-3-15-5-15-8-11-8-8-8-10-13-8-13-6-14-5-17-2-15 1-26 3-18 5-16 7-14 8-12 9-10 10-9 15-9 19-7z" fill="#5CD5FE"/>
<path transform="translate(213,1149)" d="m0 0h75l23 2 14 4 10 5 9 8 8 13 4 11 1 5v13l-2 10-5 12-8 11-8 7-16 8-16 3-32 1h-56l-1-1-1-111z" fill="#F9F9F9"/>
<path transform="translate(1174,1136)" d="m0 0h29l1 1 1 57 19-1h24v32l-7 1-30 1-5 1v99l1 41 2 9 4 5 8 4h14l11-4h7l6 19v6l-14 8-11 4-11 2-16-1-7-3-10-6-9-8-6-11-3-11-1-153-1-1-33-1v-28l1-1h33l1-60z" fill="#5CD5FE"/>
<path transform="translate(774,1301)" d="m0 0h22l17 5 17 9 8 8 2 5v35l-6 12-7 6-16 8-15 4-7 1h-10l-13-2-14-6-9-7-7-8-3-5-2-8v-22l4-10 4-6 4-5 11-8 10-4z" fill="#F9F9F9"/>
<path transform="translate(536,1224)" d="m0 0h23l14 3 12 5 11 7 8 8 5 8 5 14 4 18v5l-1 1-24 1h-113l-1-1v-10l3-12 8-17 9-10 7-6 13-8 13-5z" fill="#F9F9F9"/>
<path transform="translate(543,364)" d="m0 0h6l-2 5-10 18-10 16-12 20-14 24-13 26h-3l-7-19-10-25-11-31-4-12v-5l8-3 37-7z" fill="#F9F9F9"/>
<path transform="translate(486,598)" d="m0 0 4 2 11 22 14 24 13 23 10 17 11 16v4l-11-1-51-8-32-6-2-1 1-8 8-22 11-30 10-25z" fill="#F9F9F9"/>
<path transform="translate(893,363)" d="m0 0 8 1 48 7 37 7 2 1-1 8-13 36-11 27-5 15-2 7-2 1-3-3-13-25-11-20-8-16-15-25-10-14-2-2z" fill="#F9F9F9"/>
<path transform="translate(952,598)" d="m0 0 4 1 7 17 7 18 9 24 9 26v4l-16 4-31 6-44 7h-5l1-5 10-17 9-15 12-19 14-25z" fill="#F9F9F9"/>
<path transform="translate(660,767)" d="m0 0h120l2 2-11 14-6 8-12 14-9 11-12 13-11 13-4-1-9-11-9-10-7-8-11-13-8-10-10-13-4-5z" fill="#F9F9F9"/>
<path transform="translate(718,228)" d="m0 0 5 1 7 8 14 15 8 10 11 13 8 10 10 13v3h-123l2-5 9-10 11-14 11-13 7-9 14-15z" fill="#F9F9F9"/>
</svg>
