<?xml version="1.0" encoding="UTF-8"?>
<svg version="1.1" viewBox="0 0 1440 864" width="360" height="216" xmlns="http://www.w3.org/2000/svg">
<path transform="translate(0)" d="m0 0h1440v864h-1440z" fill="#F9F9F9"/>
<path transform="translate(345,431)" d="m0 0h46l30 3 29 5 30 7 23 7 28 11 32 16 26 16 15 11 14 11 17 14 12 11 8 7 75 75 11 9 11 10 18 13 15 9 21 10 19 6 29 6 15 2h29l27-4 19-5 17-6 17-8 19-11 14-10 17-14 16-15 8-8 7-8 8-9 10-14h2l-1 9-9 28-7 20-10 25-12 25-10 18-12 19-10 14-10 13-10 11-7 8-15 15-11 9-16 12-21 13-24 13-19 8-35 12-31 7-23 4-17 2-2 1h-767v-154l4-8 12-36 8-21 11-25 9-17 6-11 6-9 5-9 10-13 6-8 9-11 9-10 20-20 14-11 12-9 15-10 16-9 25-12 30-11 20-6 34-7 23-3z" fill="#02B5D6"/>
<path transform="translate(666)" d="m0 0h774v153l-3 6-12 36-10 26-11 24-10 20-15 24-13 18-8 10-9 10-7 8-15 15-11 9-10 8-13 9-20 12-27 13-29 11-22 7-34 7-29 4-19 2h-60l-49-5-40-8-25-7-25-10-15-7-16-8-14-8-14-9-12-8-12-9-13-11-11-9-12-11-10-9-8-7-28-28v-2l-4-2v-2l-4-2-35-35-11-9-7-6-11-8-14-9-18-10-20-8-23-6-18-3-21-2h-24l-25 4-19 5-22 8-23 12-16 11-18 14-12 11-13 12-11 12-11 14-5 6h-1v-7l7-25 11-31 13-29 11-22 10-17 11-17 10-13 11-13 9-10 19-19 11-9 16-12 18-11 14-8 16-8 21-9 25-8 28-7 33-6z" fill="#02B5D6"/>
<path transform="translate(180,605)" d="m0 0h27l27 3 23 5 15 5 18 8 18 11 12 8 16 13 11 9 24 24 8 7 4 4v2l4 2 7 8 21 21 8 7v2l4 2 9 9 8 7 10 9 14 11 13 10 24 16 21 12 25 12 28 11 25 7 33 7 30 5 2 2h-669v-147l5-4 9-12 14-15 22-22 14-11 13-10 18-11 14-8 20-8 20-6 23-4z" fill="#F9F9F9"/>
<path transform="translate(770)" d="m0 0h670v146l-6 5-13 17-7 7-7 8-15 15-11 9-20 15-18 11-19 10-19 7-26 6-22 3h-27l-27-4-25-6-21-8-16-8-18-12-13-10-10-9-8-7-12-11-73-73-8-7-11-10-9-7-17-13-24-16-15-9-23-12-24-10-25-9-26-7-38-7-17-3z" fill="#F9F9F9"/>
</svg>
